<svg width="114" height="114" viewBox="0 0 114 114" fill="none" xmlns="http://www.w3.org/2000/svg">
<rect width="114" height="114" rx="10" fill="#FAFF00"/>
<path d="M24.1562 40.4023C24.4297 38.8529 23.668 37.668 21.8711 36.8477L18.1016 35.3438C13.7266 33.3906 11.6497 30.7018 11.8711 27.2773C11.9622 25.6888 12.4831 24.2826 13.4336 23.0586C14.3841 21.8346 15.7188 20.8776 17.4375 20.1875C19.1562 19.4844 21.0117 19.1458 23.0039 19.1719C25.7513 19.224 27.9714 20.0443 29.6641 21.6328C31.3568 23.2083 32.1901 25.3242 32.1641 27.9805H26.4609C26.526 26.6914 26.2396 25.6888 25.6016 24.9727C24.9766 24.2565 24 23.8854 22.6719 23.8594C21.3698 23.8333 20.237 24.1328 19.2734 24.7578C18.3099 25.3698 17.737 26.2161 17.5547 27.2969C17.3073 28.7161 18.2578 29.8424 20.4062 30.6758L22.9844 31.6523L24.4688 32.3359C28.3099 34.237 30.1068 36.9062 29.8594 40.3438C29.7422 42.0234 29.2018 43.4753 28.2383 44.6992C27.2878 45.9102 25.9857 46.8411 24.332 47.4922C22.6914 48.1432 20.8815 48.4492 18.9023 48.4102C16.8841 48.3711 15.0872 47.9479 13.5117 47.1406C11.9362 46.3333 10.7383 45.194 9.91797 43.7227C9.14974 42.3555 8.79167 40.793 8.84375 39.0352L14.5664 39.0547C14.3841 42.1406 15.901 43.7096 19.1172 43.7617C20.5104 43.7617 21.6562 43.4557 22.5547 42.8438C23.4531 42.2318 23.987 41.418 24.1562 40.4023ZM40.6211 29.2109C42.2747 27.362 44.1823 26.4505 46.3438 26.4766C48.4401 26.5286 49.9766 27.2839 50.9531 28.7422C51.9427 30.1875 52.3138 32.1667 52.0664 34.6797L49.8398 48H44.332L46.5781 34.6211C46.6432 34.1133 46.6562 33.6445 46.6172 33.2148C46.487 31.8086 45.6667 31.0859 44.1562 31.0469C42.6719 30.9948 41.3698 31.6328 40.25 32.9609L37.5938 48H32.0859L37.2812 18H42.8086L40.6211 29.2109ZM66.2266 26.4766C68.0885 26.5026 69.6901 26.9844 71.0312 27.9219C72.3854 28.8464 73.375 30.1289 74 31.7695C74.638 33.3971 74.8659 35.207 74.6836 37.1992C74.3841 40.5586 73.2122 43.2799 71.168 45.3633C69.1367 47.4336 66.6237 48.4427 63.6289 48.3906C61.793 48.3646 60.2044 47.8958 58.8633 46.9844C57.5221 46.0599 56.5326 44.7839 55.8945 43.1562C55.2565 41.5286 55.0286 39.7318 55.2109 37.7656C55.5495 34.276 56.7344 31.5026 58.7656 29.4453C60.7969 27.388 63.2839 26.3984 66.2266 26.4766ZM60.6602 39.7773C60.6862 41.0273 60.9792 42.0169 61.5391 42.7461C62.099 43.4622 62.8867 43.8333 63.9023 43.8594C65.5951 43.9115 66.9232 43.1367 67.8867 41.5352C68.8503 39.9206 69.2995 37.8047 69.2344 35.1875C69.1823 33.9375 68.8763 32.9414 68.3164 32.1992C67.7695 31.444 66.9818 31.0534 65.9531 31.0273C64.3125 30.9753 62.9974 31.75 62.0078 33.3516C61.0312 34.9401 60.582 37.082 60.6602 39.7773ZM90.7578 32.1602C90.0026 32.0299 89.3841 31.9648 88.9023 31.9648C86.9362 31.9128 85.3802 32.6484 84.2344 34.1719L81.793 48H76.2852L79.957 26.8672L85.1328 26.8477L84.625 29.4258C85.9531 27.4336 87.5938 26.4375 89.5469 26.4375C90.0938 26.4375 90.7318 26.5286 91.4609 26.7109L90.7578 32.1602ZM102.809 21.6719L101.891 26.8672H105.406L104.684 31.0078H101.168L99.3711 41.5938C99.293 42.2578 99.3451 42.7656 99.5273 43.1172C99.7096 43.4688 100.152 43.6576 100.855 43.6836C101.064 43.6966 101.624 43.6641 102.535 43.5859L102.145 47.9023C101.168 48.2279 100.113 48.3776 98.9805 48.3516C97.1706 48.3255 95.8229 47.7591 94.9375 46.6523C94.0521 45.5456 93.6875 44.0482 93.8438 42.1602L95.6602 31.0078H92.6719L93.3945 26.8672H96.3828L97.2812 21.6719H102.809ZM26.4121 91.2715C28.0625 91.3138 29.4378 90.8695 30.5381 89.9385C31.6383 88.9863 32.3577 87.7274 32.6963 86.1616L41.1069 86.1299C40.9588 88.542 40.1971 90.7108 38.8218 92.6362C37.4676 94.5617 35.6479 96.064 33.3628 97.1431C31.0988 98.2222 28.7078 98.73 26.1899 98.6665C22.0216 98.603 18.7209 97.1642 16.2876 94.3501C13.8543 91.536 12.68 87.7909 12.7646 83.1147L12.8599 81.3691L12.8916 81.02C13.4629 75.4341 15.346 71.0119 18.541 67.7534C21.736 64.4738 25.6821 62.8975 30.3794 63.0244C34.2515 63.109 37.3195 64.3786 39.5835 66.833C41.8687 69.2663 42.9901 72.4824 42.9478 76.4814H34.6006C34.6006 74.6406 34.1986 73.1912 33.3945 72.1333C32.5905 71.0754 31.3844 70.5041 29.7764 70.4194C25.5023 70.2925 22.9103 73.4134 22.0005 79.7822C21.6831 82.0885 21.5667 84.0352 21.6514 85.6221C21.863 89.3249 23.4499 91.208 26.4121 91.2715ZM65.8311 94.4453C63.292 97.3018 60.1393 98.6982 56.373 98.6348C53.0723 98.5924 50.5755 97.4076 48.8828 95.0801C47.1901 92.7526 46.5342 89.6846 46.915 85.876L50.6284 63.6592H59.5786L55.8018 85.9712C55.7171 86.6694 55.7065 87.3254 55.77 87.939C55.9816 90.0549 57.1559 91.1445 59.293 91.208C62.0648 91.2926 64.3605 90.2241 66.1802 88.0024L70.4648 63.6592H79.4785L73.5117 98H65.1646L65.8311 94.4453ZM98.3311 55.2168L96.8394 63.6592H102.552L101.378 70.3877H95.665L92.7451 87.5898C92.6182 88.6689 92.7028 89.4941 92.999 90.0654C93.2952 90.6367 94.0146 90.9435 95.1572 90.9858C95.4958 91.007 96.4056 90.9541 97.8867 90.8271L97.252 97.8413C95.665 98.3703 93.9512 98.6136 92.1104 98.5713C89.1693 98.529 86.9793 97.6086 85.5405 95.8101C84.1017 94.0116 83.5093 91.5783 83.7632 88.5103L86.7148 70.3877H81.8589L83.0332 63.6592H87.8892L89.3491 55.2168H98.3311Z" fill="#0005FF"/>
</svg>
