<svg width="173" height="67" viewBox="0 0 173 67" fill="none" xmlns="http://www.w3.org/2000/svg">
<path d="M26.3242 39.4023C26.5977 37.8529 25.8359 36.668 24.0391 35.8477L20.2695 34.3438C15.8945 32.3906 13.8177 29.7018 14.0391 26.2773C14.1302 24.6888 14.651 23.2826 15.6016 22.0586C16.5521 20.8346 17.8867 19.8776 19.6055 19.1875C21.3242 18.4844 23.1797 18.1458 25.1719 18.1719C27.9193 18.224 30.1393 19.0443 31.832 20.6328C33.5247 22.2083 34.3581 24.3242 34.332 26.9805H28.6289C28.694 25.6914 28.4076 24.6888 27.7695 23.9727C27.1445 23.2565 26.168 22.8854 24.8398 22.8594C23.5378 22.8333 22.4049 23.1328 21.4414 23.7578C20.4779 24.3698 19.9049 25.2161 19.7227 26.2969C19.4753 27.7161 20.4258 28.8424 22.5742 29.6758L25.1523 30.6523L26.6367 31.3359C30.4779 33.237 32.2747 35.9062 32.0273 39.3438C31.9102 41.0234 31.3698 42.4753 30.4062 43.6992C29.4557 44.9102 28.1536 45.8411 26.5 46.4922C24.8594 47.1432 23.0495 47.4492 21.0703 47.4102C19.0521 47.3711 17.2552 46.9479 15.6797 46.1406C14.1042 45.3333 12.9062 44.194 12.0859 42.7227C11.3177 41.3555 10.9596 39.793 11.0117 38.0352L16.7344 38.0547C16.5521 41.1406 18.069 42.7096 21.2852 42.7617C22.6784 42.7617 23.8242 42.4557 24.7227 41.8438C25.6211 41.2318 26.1549 40.418 26.3242 39.4023ZM42.7891 28.2109C44.4427 26.362 46.3503 25.4505 48.5117 25.4766C50.6081 25.5286 52.1445 26.2839 53.1211 27.7422C54.1107 29.1875 54.4818 31.1667 54.2344 33.6797L52.0078 47H46.5L48.7461 33.6211C48.8112 33.1133 48.8242 32.6445 48.7852 32.2148C48.6549 30.8086 47.8346 30.0859 46.3242 30.0469C44.8398 29.9948 43.5378 30.6328 42.418 31.9609L39.7617 47H34.2539L39.4492 17H44.9766L42.7891 28.2109ZM68.3945 25.4766C70.2565 25.5026 71.8581 25.9844 73.1992 26.9219C74.5534 27.8464 75.543 29.1289 76.168 30.7695C76.806 32.3971 77.0339 34.207 76.8516 36.1992C76.5521 39.5586 75.3802 42.2799 73.3359 44.3633C71.3047 46.4336 68.7917 47.4427 65.7969 47.3906C63.9609 47.3646 62.3724 46.8958 61.0312 45.9844C59.6901 45.0599 58.7005 43.7839 58.0625 42.1562C57.4245 40.5286 57.1966 38.7318 57.3789 36.7656C57.7174 33.276 58.9023 30.5026 60.9336 28.4453C62.9648 26.388 65.4518 25.3984 68.3945 25.4766ZM62.8281 38.7773C62.8542 40.0273 63.1471 41.0169 63.707 41.7461C64.2669 42.4622 65.0547 42.8333 66.0703 42.8594C67.763 42.9115 69.0911 42.1367 70.0547 40.5352C71.0182 38.9206 71.4674 36.8047 71.4023 34.1875C71.3503 32.9375 71.0443 31.9414 70.4844 31.1992C69.9375 30.444 69.1497 30.0534 68.1211 30.0273C66.4805 29.9753 65.1654 30.75 64.1758 32.3516C63.1992 33.9401 62.75 36.082 62.8281 38.7773ZM92.9258 31.1602C92.1706 31.0299 91.5521 30.9648 91.0703 30.9648C89.1042 30.9128 87.5482 31.6484 86.4023 33.1719L83.9609 47H78.4531L82.125 25.8672L87.3008 25.8477L86.793 28.4258C88.1211 26.4336 89.7617 25.4375 91.7148 25.4375C92.2617 25.4375 92.8997 25.5286 93.6289 25.7109L92.9258 31.1602ZM104.977 20.6719L104.059 25.8672H107.574L106.852 30.0078H103.336L101.539 40.5938C101.461 41.2578 101.513 41.7656 101.695 42.1172C101.878 42.4688 102.32 42.6576 103.023 42.6836C103.232 42.6966 103.792 42.6641 104.703 42.5859L104.312 46.9023C103.336 47.2279 102.281 47.3776 101.148 47.3516C99.3385 47.3255 97.9909 46.7591 97.1055 45.6523C96.2201 44.5456 95.8555 43.0482 96.0117 41.1602L97.8281 30.0078H94.8398L95.5625 25.8672H98.5508L99.4492 20.6719H104.977ZM116.383 42.8594C117.398 42.8854 118.245 42.612 118.922 42.0391C119.599 41.4531 120.042 40.6784 120.25 39.7148L125.426 39.6953C125.335 41.1797 124.866 42.5143 124.02 43.6992C123.186 44.8841 122.066 45.8086 120.66 46.4727C119.267 47.1367 117.796 47.4492 116.246 47.4102C113.681 47.3711 111.65 46.4857 110.152 44.7539C108.655 43.0221 107.932 40.7174 107.984 37.8398L108.043 36.7656L108.062 36.5508C108.414 33.1133 109.573 30.3919 111.539 28.3867C113.505 26.3685 115.934 25.3984 118.824 25.4766C121.207 25.5286 123.095 26.3099 124.488 27.8203C125.895 29.3177 126.585 31.2969 126.559 33.7578H121.422C121.422 32.625 121.174 31.7331 120.68 31.082C120.185 30.431 119.443 30.0794 118.453 30.0273C115.823 29.9492 114.228 31.8698 113.668 35.7891C113.473 37.2083 113.401 38.4062 113.453 39.3828C113.583 41.6615 114.56 42.8203 116.383 42.8594ZM140.641 44.8125C139.078 46.5703 137.138 47.4297 134.82 47.3906C132.789 47.3646 131.253 46.6354 130.211 45.2031C129.169 43.7708 128.766 41.8828 129 39.5391L131.285 25.8672H136.793L134.469 39.5977C134.417 40.0273 134.41 40.431 134.449 40.8086C134.579 42.1107 135.302 42.7812 136.617 42.8203C138.323 42.8724 139.736 42.2148 140.855 40.8477L143.492 25.8672H149.039L145.367 47H140.23L140.641 44.8125ZM160.641 20.6719L159.723 25.8672H163.238L162.516 30.0078H159L157.203 40.5938C157.125 41.2578 157.177 41.7656 157.359 42.1172C157.542 42.4688 157.984 42.6576 158.688 42.6836C158.896 42.6966 159.456 42.6641 160.367 42.5859L159.977 46.9023C159 47.2279 157.945 47.3776 156.812 47.3516C155.003 47.3255 153.655 46.7591 152.77 45.6523C151.884 44.5456 151.52 43.0482 151.676 41.1602L153.492 30.0078H150.504L151.227 25.8672H154.215L155.113 20.6719H160.641Z" fill="#0005FF"/>
</svg>
