<svg width="60" height="40" viewBox="0 0 60 40" fill="none" xmlns="http://www.w3.org/2000/svg">
<ellipse cx="30" cy="20" rx="30" ry="20" fill="#FAFF00"/>
<path d="M10.3984 17.6035L10.46 18.4307C10.984 17.7881 11.6927 17.4668 12.5859 17.4668C13.5384 17.4668 14.1924 17.8428 14.5479 18.5947C15.0674 17.8428 15.8079 17.4668 16.7695 17.4668C17.5716 17.4668 18.1686 17.7015 18.5605 18.1709C18.9525 18.6357 19.1484 19.3376 19.1484 20.2764V25H17.166V20.2832C17.166 19.8639 17.084 19.5586 16.9199 19.3672C16.7559 19.1712 16.4665 19.0732 16.0518 19.0732C15.4593 19.0732 15.0492 19.3558 14.8213 19.9209L14.8281 25H12.8525V20.29C12.8525 19.8617 12.7682 19.5518 12.5996 19.3604C12.431 19.1689 12.1439 19.0732 11.7383 19.0732C11.1777 19.0732 10.7721 19.3057 10.5215 19.7705V25H8.5459V17.6035H10.3984ZM24.959 25C24.8678 24.8223 24.8018 24.6012 24.7607 24.3369C24.2822 24.8701 23.6602 25.1367 22.8945 25.1367C22.1699 25.1367 21.5684 24.9271 21.0898 24.5078C20.6159 24.0885 20.3789 23.5599 20.3789 22.9219C20.3789 22.138 20.6683 21.5365 21.2471 21.1172C21.8304 20.6979 22.6712 20.486 23.7695 20.4814H24.6787V20.0576C24.6787 19.7158 24.5898 19.4424 24.4121 19.2373C24.2389 19.0322 23.9632 18.9297 23.585 18.9297C23.2523 18.9297 22.9902 19.0094 22.7988 19.1689C22.612 19.3285 22.5186 19.5472 22.5186 19.8252H20.543C20.543 19.3968 20.6751 19.0003 20.9395 18.6357C21.2038 18.2712 21.5775 17.9863 22.0605 17.7812C22.5436 17.5716 23.0859 17.4668 23.6875 17.4668C24.599 17.4668 25.3213 17.6969 25.8545 18.1572C26.3923 18.613 26.6611 19.2555 26.6611 20.085V23.291C26.6657 23.9928 26.7637 24.5238 26.9551 24.8838V25H24.959ZM23.3252 23.626C23.6169 23.626 23.8857 23.5622 24.1318 23.4346C24.3779 23.3024 24.5602 23.127 24.6787 22.9082V21.6367H23.9404C22.9515 21.6367 22.4251 21.9785 22.3613 22.6621L22.3545 22.7783C22.3545 23.0244 22.4411 23.2272 22.6143 23.3867C22.7874 23.5462 23.0244 23.626 23.3252 23.626ZM31.2549 23.5439C31.6195 23.5439 31.9157 23.4437 32.1436 23.2432C32.3714 23.0426 32.4899 22.776 32.499 22.4434H34.3516C34.347 22.9447 34.2103 23.4049 33.9414 23.8242C33.6725 24.2389 33.3034 24.5625 32.834 24.7949C32.3691 25.0228 31.8542 25.1367 31.2891 25.1367C30.2318 25.1367 29.3978 24.8018 28.7871 24.1318C28.1764 23.4574 27.8711 22.5277 27.8711 21.3428V21.2129C27.8711 20.0736 28.1742 19.1644 28.7803 18.4854C29.3864 17.8063 30.2181 17.4668 31.2754 17.4668C32.2005 17.4668 32.9411 17.7311 33.4971 18.2598C34.0576 18.7839 34.3424 19.4834 34.3516 20.3584H32.499C32.4899 19.9756 32.3714 19.6657 32.1436 19.4287C31.9157 19.1872 31.6149 19.0664 31.2412 19.0664C30.7809 19.0664 30.4323 19.235 30.1953 19.5723C29.9629 19.9049 29.8467 20.4473 29.8467 21.1992V21.4043C29.8467 22.1654 29.9629 22.7122 30.1953 23.0449C30.4277 23.3776 30.7809 23.5439 31.2549 23.5439ZM43.7852 20.249C43.7852 21.2288 43.612 22.0879 43.2656 22.8262C42.9193 23.5645 42.4225 24.1341 41.7754 24.5352C41.1328 24.9362 40.3945 25.1367 39.5605 25.1367C38.7357 25.1367 37.9997 24.9385 37.3525 24.542C36.7054 24.1455 36.2041 23.5804 35.8486 22.8467C35.4932 22.1084 35.3132 21.2607 35.3086 20.3037V19.8115C35.3086 18.8317 35.484 17.9704 35.835 17.2275C36.1904 16.4801 36.6895 15.9082 37.332 15.5117C37.9792 15.1107 38.7174 14.9102 39.5469 14.9102C40.3763 14.9102 41.1123 15.1107 41.7549 15.5117C42.402 15.9082 42.901 16.4801 43.252 17.2275C43.6074 17.9704 43.7852 18.8294 43.7852 19.8047V20.249ZM41.707 19.7979C41.707 18.7542 41.5202 17.9613 41.1465 17.4189C40.7728 16.8766 40.2396 16.6055 39.5469 16.6055C38.8587 16.6055 38.3278 16.8743 37.9541 17.4121C37.5804 17.9453 37.3913 18.7292 37.3867 19.7637V20.249C37.3867 21.2653 37.5736 22.0537 37.9473 22.6143C38.321 23.1748 38.8587 23.4551 39.5605 23.4551C40.2487 23.4551 40.7773 23.1862 41.1465 22.6484C41.5156 22.1061 41.7025 21.3177 41.707 20.2832V19.7979ZM50.4365 22.3887C50.4365 22.0013 50.2998 21.7051 50.0264 21.5C49.7529 21.2904 49.2607 21.0716 48.5498 20.8438C47.8389 20.6113 47.276 20.3835 46.8613 20.1602C45.7311 19.5495 45.166 18.7269 45.166 17.6924C45.166 17.1546 45.3164 16.6761 45.6172 16.2568C45.9225 15.833 46.3577 15.5026 46.9229 15.2656C47.4925 15.0286 48.1305 14.9102 48.8369 14.9102C49.5479 14.9102 50.1813 15.04 50.7373 15.2998C51.2933 15.555 51.724 15.9173 52.0293 16.3867C52.3392 16.8561 52.4941 17.3893 52.4941 17.9863H50.4434C50.4434 17.5306 50.2998 17.1774 50.0127 16.9268C49.7256 16.6715 49.3223 16.5439 48.8027 16.5439C48.3014 16.5439 47.9118 16.651 47.6338 16.8652C47.3558 17.0749 47.2168 17.3529 47.2168 17.6992C47.2168 18.0228 47.3786 18.2939 47.7021 18.5127C48.0303 18.7314 48.5111 18.9365 49.1445 19.1279C50.3112 19.4788 51.1611 19.9141 51.6943 20.4336C52.2275 20.9531 52.4941 21.6003 52.4941 22.375C52.4941 23.2363 52.1683 23.9131 51.5166 24.4053C50.8649 24.8929 49.9876 25.1367 48.8848 25.1367C48.1191 25.1367 47.4219 24.9977 46.793 24.7197C46.1641 24.4372 45.6833 24.0521 45.3506 23.5645C45.0225 23.0768 44.8584 22.5117 44.8584 21.8691H46.916C46.916 22.9674 47.5723 23.5166 48.8848 23.5166C49.3724 23.5166 49.7529 23.4186 50.0264 23.2227C50.2998 23.0221 50.4365 22.7441 50.4365 22.3887Z" fill="black"/>
</svg>
